<svg xmlns="http://www.w3.org/2000/svg" xmlns:xlink="http://www.w3.org/1999/xlink" xmlns:lucid="lucid" width="1460" height="1160"><g transform="translate(0 -40)" lucid:page-tab-id="0_0"><path d="M60 62c0-1.1.9-2 2-2h1376c1.1 0 2 .9 2 2v1116c0 1.1-.9 2-2 2H62c-1.1 0-2-.9-2-2z" fill="#f6f6f6"/><path d="M111.72 88.08c.02-2.27.85-4.2 2.48-5.8 1.64-1.6 3.6-2.38 5.87-2.37 1.06 0 2.07.18 3.03.57.97.4 1.84.96 2.58 1.7l-1.63 1.56c-1.13-1.07-2.44-1.6-3.98-1.6-1.06 0-2.07.27-3 .8-.9.55-1.63 1.28-2.15 2.2-.53.94-.76 1.93-.74 3-.02 1.06.2 2.05.74 2.97.52.93 1.24 1.67 2.16 2.2.92.54 1.93.8 3 .8.77.04 1.5-.1 2.22-.37.7-.3 1.33-.7 1.9-1.26.72-.8 1.14-1.73 1.2-2.8h-5.33v-2.33h7.47c.1.47.14.93.14 1.4.07 2-.6 3.75-1.95 5.23-.74.77-1.6 1.35-2.58 1.75-1 .4-2.02.58-3.08.54-2.28 0-4.23-.78-5.87-2.37-1.63-1.6-2.46-3.54-2.48-5.82zm0 0M133.75 85.73c-1.45 0-2.7.52-3.72 1.55-1.04 1.03-1.54 2.27-1.54 3.72 0 1.45.5 2.7 1.55 3.72 1.03 1.03 2.28 1.54 3.73 1.54 1.44 0 2.7-.52 3.72-1.54 1.04-1.03 1.54-2.27 1.54-3.72.03-.95-.2-1.84-.66-2.66-.46-.82-1.13-1.47-1.96-1.94-.83-.46-1.72-.7-2.67-.67zm0 8.45c-.55 0-1.06-.16-1.54-.45-.47-.3-.84-.68-1.1-1.17-.25-.5-.36-1.02-.34-1.58 0-.82.3-1.53.88-2.1.57-.6 1.3-.9 2.1-.9.84 0 1.58.3 2.15.9.57.57.87 1.28.87 2.1.02.56-.1 1.1-.35 1.58-.25.5-.62.88-1.1 1.18-.5.3-1 .44-1.57.45zM145.32 85.73c-1.45 0-2.7.52-3.72 1.55-1.04 1.03-1.54 2.28-1.54 3.73 0 1.46.52 2.7 1.56 3.72 1.03 1.03 2.28 1.55 3.72 1.54 1.45 0 2.7-.52 3.73-1.54 1.04-1.03 1.54-2.27 1.54-3.72.03-.95-.2-1.84-.68-2.66-.48-.83-1.1-1.47-1.93-1.94-.84-.47-1.74-.7-2.68-.67zm0 8.45c-.55 0-1.08-.16-1.56-.45-.5-.3-.83-.68-1.08-1.17-.26-.5-.4-1.02-.37-1.58 0-.82.33-1.53.9-2.1.58-.6 1.3-.9 2.12-.9.83 0 1.54.3 2.12.9.57.57.87 1.28.87 2.1.03.56-.08 1.1-.33 1.58-.26.5-.62.88-1.1 1.18-.5.3-1 .44-1.55.45zM159.5 86.05v.86h-.08c-.37-.38-.78-.68-1.26-.9-.5-.2-1-.28-1.52-.27-1.4.06-2.62.6-3.6 1.62-.96 1.02-1.46 2.23-1.46 3.64 0 1.4.5 2.6 1.47 3.63.97 1.02 2.2 1.56 3.6 1.62.52.02 1.02-.08 1.5-.3.5-.2.93-.5 1.27-.9h.07v.76c0 2-1.1 3.1-2.84 3.1-.57-.02-1.1-.2-1.6-.53-.47-.34-.8-.78-1.02-1.33l-2 .84c.4.95 1 1.7 1.86 2.27.85.57 1.8.85 2.83.84 2.7 0 5-1.6 5-5.5v-9.45h-2.22zm-2.68 8.14c-.55-.02-1.06-.17-1.52-.46-.46-.3-.82-.68-1.08-1.17-.25-.5-.34-1-.32-1.55-.02-.55.07-1.08.32-1.57.26-.5.62-.88 1.08-1.18.46-.3.97-.45 1.52-.47.55.03 1.04.2 1.5.5.46.3.8.7 1.03 1.17.23.5.35 1 .3 1.55.02.53-.07 1.04-.3 1.52-.23.47-.6.86-1.03 1.16-.44.3-.97.46-1.5.5zm0 0M163.28 80.47h2.33v15.47h-2.3zM171.96 94.2c-.56 0-1.06-.13-1.52-.42-.46-.3-.8-.7-1.04-1.2l7.06-2.9-.25-.6c-.3-.98-.9-1.77-1.7-2.4-.84-.6-1.76-.93-2.8-.95-.92 0-1.8.23-2.6.7-.8.5-1.4 1.13-1.84 1.95-.43.82-.62 1.7-.57 2.62-.03.94.2 1.82.66 2.64.46.83 1.1 1.47 1.93 1.94.82.47 1.7.7 2.63.68.88 0 1.73-.2 2.5-.6.8-.43 1.4-1 1.9-1.73l-1.8-1.2c-.27.45-.64.8-1.1 1.07-.46.26-.94.4-1.47.4zm-.2-6.44c.43-.04.82.04 1.2.25.35.2.63.5.8.88l-4.7 2c-.05-.53.04-1.02.27-1.5.23-.47.56-.85 1-1.14.43-.3.9-.45 1.44-.48zm0 0M181.04 88.8c-.02-1.34.28-2.6.94-3.76.67-1.16 1.57-2.08 2.74-2.74 1.17-.67 2.42-1 3.75-.96 1-.02 1.98.17 2.9.58.92.4 1.7 1 2.37 1.75l-1.3 1.24c-.47-.6-1.07-1.06-1.78-1.38-.72-.32-1.43-.46-2.2-.43-1.03-.03-2 .22-2.87.73-.88.5-1.57 1.2-2.05 2.1-.5.9-.72 1.85-.67 2.87-.04 1 .2 1.95.7 2.84.47.88 1.14 1.58 2 2.08.9.5 1.83.75 2.84.73.85 0 1.66-.17 2.42-.5.76-.36 1.42-.85 1.98-1.5l1.28 1.3c-1.03 1.15-2.27 1.9-3.8 2.28-1.5.38-2.98.3-4.43-.26-1.45-.55-2.64-1.46-3.52-2.73-.87-1.28-1.3-2.7-1.3-4.24zm0 0M195.55 95.94V81.66h1.84v14.28zM208.83 91.06c0 1.38-.5 2.56-1.48 3.55-1 1-2.18 1.48-3.56 1.48-1.4 0-2.56-.5-3.55-1.47-1-.97-1.48-2.16-1.48-3.54 0-1.4.5-2.58 1.48-3.56 1-.98 2.16-1.47 3.54-1.47 1.37 0 2.56.5 3.55 1.47 1 .98 1.48 2.17 1.48 3.56zm-1.84 0c.05-.73-.13-1.4-.52-2.02-.4-.6-.97-1.03-1.66-1.27-.7-.23-1.38-.23-2.07 0-.7.24-1.24.67-1.63 1.28-.4.6-.6 1.28-.53 2 0 .9.3 1.64.93 2.27.63.63 1.38.94 2.28.94.9 0 1.67-.3 2.3-.94.6-.63.93-1.38.93-2.26zM217.13 95.94v-1.36H217c-.33.53-.77.93-1.32 1.23-.55.3-1.15.46-1.77.46-2.52 0-3.72-1.7-3.72-4.1v-6h1.84v5.7c0 2 1 2.72 2.42 2.72.76-.06 1.4-.38 1.9-.97.5-.57.72-1.24.67-2v-5.4h1.85v9.77h-1.74zM220.37 91.06c-.07-1.36.37-2.54 1.27-3.55.9-1 2.02-1.56 3.38-1.65.66-.02 1.28.12 1.88.4.6.3 1.08.73 1.45 1.27h.07l-.07-1.36v-4.5h1.84v14.28h-1.78v-1.36h-.07c-.37.55-.85.97-1.45 1.27-.6.3-1.22.43-1.88.4-1.36-.08-2.5-.64-3.38-1.65-.9-1-1.34-2.2-1.27-3.54zm8.07 0c.1-.73-.06-1.4-.46-2.03-.4-.62-.92-1.04-1.6-1.28-.7-.25-1.4-.25-2.08 0-.7.24-1.24.66-1.63 1.28-.4.63-.55 1.3-.46 2.03-.08.72.08 1.4.47 2 .4.63.94 1.06 1.63 1.3.7.25 1.38.25 2.07 0 .7-.24 1.22-.67 1.6-1.3.4-.6.57-1.28.47-2zM235.23 95.94V81.66h4.88c.8-.03 1.52.15 2.2.52.7.37 1.23.9 1.65 1.55.4.67.6 1.4.62 2.18-.03.8-.2 1.5-.62 2.18-.42.67-.95 1.2-1.64 1.56-.68.37-1.4.54-2.2.52h-3v5.78h-1.85zm4.9-7.54c.7 0 1.3-.24 1.77-.73.48-.5.74-1.08.74-1.76 0-.68-.26-1.27-.74-1.76-.48-.48-1.08-.73-1.77-.73H237v5h3.08zM245.86 95.94V81.66h1.84v14.28zM249.28 93c0-2.22 2-3.42 4.3-3.42.95-.02 1.84.18 2.67.6v-.28c-.05-.6-.25-1.1-.64-1.54-.38-.44-.84-.72-1.42-.83-.57-.12-1.13-.05-1.66.2-.52.26-.92.65-1.17 1.17l-1.68-.72c.46-.9 1.15-1.54 2.05-1.97.9-.4 1.84-.5 2.83-.3 1 .22 1.8.72 2.44 1.48.63.77.95 1.66 1 2.66v5.9h-1.75v-1.36h-.1c-.34.55-.8.97-1.37 1.27-.58.3-1.2.44-1.84.4-.62.07-1.2-.04-1.77-.3-.58-.3-1-.7-1.36-1.23-.33-.53-.52-1.1-.52-1.73zm7-1.27c-.72-.47-1.48-.68-2.33-.64-1.93 0-2.7 1-2.7 1.93.06.5.3.88.68 1.18.4.3.82.44 1.3.38.8 0 1.5-.27 2.08-.82.58-.55.9-1.23.95-2.03zM260.64 92.97v-5.13h-1.72v-1.68h1.72v-3h1.84v3h2.4v1.68h-2.4v5c0 1.1.5 1.58 1.34 1.58.3.02.55-.03.83-.15l.64 1.57c-.5.2-.98.28-1.48.26-.58.07-1.13-.03-1.66-.3s-.92-.67-1.2-1.18c-.27-.52-.38-1.07-.32-1.65zM272.6 81.84l-.62 1.57c-.27-.1-.53-.16-.83-.15-.3-.02-.57.04-.85.2-.27.14-.48.35-.62.62-.13.27-.18.56-.16.86v1.23h2.46v1.68h-2.55v8.1h-1.84v-8.1h-1.85v-1.68h1.84v-1.3c-.03-.6.1-1.18.43-1.7.32-.54.76-.95 1.3-1.23.56-.3 1.14-.4 1.76-.35.5-.03 1.02.06 1.5.26zM282.6 91.06c0 1.38-.47 2.56-1.46 3.55-1 1-2.2 1.48-3.57 1.48-1.38 0-2.57-.5-3.56-1.47-.98-.97-1.47-2.16-1.47-3.54 0-1.4.5-2.58 1.48-3.56 1-.98 2.2-1.47 3.57-1.47 1.38 0 2.58.5 3.57 1.47 1 .98 1.47 2.17 1.47 3.56zm-1.83 0c.07-.73-.12-1.4-.5-2.02-.4-.6-.97-1.03-1.66-1.27-.68-.23-1.37-.23-2.06 0-.7.24-1.27.67-1.66 1.28-.4.6-.57 1.28-.5 2-.07.73.1 1.4.5 2.02.4.6.97 1.03 1.66 1.27.7.23 1.38.23 2.07 0 .7-.24 1.27-.67 1.66-1.28.4-.6.58-1.28.5-2zM284.08 95.94v-9.78h1.77v1.6h.07c.25-.55.67-1 1.17-1.32.5-.33 1.07-.5 1.67-.5.5-.03.95.05 1.38.22l-.7 1.72c-.33-.1-.65-.15-1-.14-.48.02-.92.17-1.33.43-.42.27-.74.6-.95 1.05-.2.43-.32.9-.27 1.38v5.34zm0 0M291.14 86.16h1.75v1.36h.08c.35-.5.78-.9 1.3-1.2.54-.3 1.12-.45 1.72-.47.66-.05 1.26.1 1.84.44.57.33.98.8 1.24 1.42.37-.6.87-1.05 1.47-1.38.6-.34 1.26-.5 1.95-.5 2.4 0 3.5 1.7 3.5 4.12v5.98h-1.84v-5.7c0-2-.78-2.72-2.2-2.72-1.4 0-2.47 1.52-2.47 3v5.4h-1.85v-5.7c0-1.98-.78-2.7-2.18-2.7-1.4 0-2.5 1.52-2.5 3v5.4h-1.85v-9.76z" fill="#737373"/><path d="M94.38 95.95l-2.88 5h-7.52c-.34 0-.64-.1-.94-.26-.3-.18-.53-.4-.7-.7L76.3 89.4c-.17-.3-.26-.6-.26-.94 0-.33.1-.64.26-.93l2.3-4.05 2.85 5 4.32 7.47zm0 0" fill="#ffcc40"/><path d="M103.88 89.4l-6.1 10.6c-.16.3-.4.52-.7.7-.3.16-.6.24-.93.24H91.5l2.88-5 4.32-7.47L94.38 81h5.68l3.77 6.54c.16.3.28.6.28.92 0 .34-.06.65-.22.94z" fill="#da4437"/><path d="M100.06 81h-14.3l-4.3 7.47-2.88-5 3.77-6.53c.16-.3.4-.52.7-.7.3-.16.6-.24.93-.24h12.17c.34 0 .64.08.94.25.3.17.52.4.68.7z" fill="#4284f3"/><path d="M94.38 81l4.32 7.47-4.32 7.48h-8.63l-4.3-7.48 4.3-7.48z" fill="#dfdfdf"/><path d="M86.33 88.47c0-2.06 1.68-3.74 3.75-3.74 2.07 0 3.75 1.67 3.75 3.74 0 2.06-1.68 3.74-3.75 3.74-2.07 0-3.75-1.67-3.75-3.73z" fill="#fff"/><path d="M82.35 77.1c.16-.3.4-.52.7-.7.3-.16.6-.24.93-.24h12.17c.34 0 .64.08.94.25.3.18.52.4.68.7l2.28 3.9-2.28-4.06c-.16-.3-.4-.52-.7-.7-.3-.16-.6-.24-.93-.24H83.98c-.34 0-.64.08-.94.25-.3.17-.53.4-.7.7l-3.76 6.53v.08z" fill="#fff" fill-opacity=".2"/><path d="M81.45 88.47l4.3-7.48h14.35l-.06-.17h-14.3l-4.3 7.48" fill="#1a237e" fill-opacity=".2"/><path d="M76.28 87.7l2.3-4 2.87 5 4.3 7.47h8.56l.08-.16h-8.63l-4.3-7.53-2.87-5-2.33 4c-.18.3-.25.65-.23 1 .03-.28.12-.54.26-.78zm0 0" fill="#fff" fill-opacity=".2"/><path d="M91.6 100.78h-7.62c-.34 0-.64-.08-.94-.25-.3-.17-.53-.4-.7-.7L76.3 89.26c-.14-.27-.23-.55-.26-.85-.02.35.07.7.26 1l6.07 10.6c.16.3.4.52.7.7.3.16.6.24.93.24h7.52z" fill="#be360c"/><path d="M98.8 88.47L94.46 81h-.1l4.33 7.47zM103.88 89.25l-6.1 10.6c-.16.28-.4.5-.7.68-.3.17-.6.25-.93.25H91.6l-.1.16h4.65c.34 0 .64-.08.94-.25.3-.18.52-.4.68-.7l6.1-10.6c.18-.3.25-.64.23-1-.02.3-.1.6-.22.85zm0 0" fill="#3e2723"/><path d="M100.06 81.15l3.77 6.55c.14.27.23.55.25.85.03-.36-.07-.7-.25-1L100.06 81h-5.68l.1.15M94.38 96.1l4.4-7.63h-.08l-4.32 7.48-2.88 5h.1z" fill="#fff"/><path d="M103.88 87.54L100.06 81l-2.28-4.06c-.16-.3-.4-.52-.7-.7-.3-.16-.6-.24-.93-.24H83.98c-.34 0-.64.08-.94.25-.3.17-.53.4-.7.7l-6.06 10.6c-.17.28-.26.6-.26.92 0 .34.1.65.26.94l6.07 10.6c.16.3.4.52.7.7.3.16.6.24.93.24h12.17c.34 0 .64-.08.94-.25.3-.18.52-.4.68-.7l6.1-10.6c.16-.28.25-.6.25-.93 0-.33-.1-.64-.25-.93z" fill="url(#a)"/><path d="M870 96c0-3.3 2.7-6 6-6h468c3.3 0 6 2.7 6 6v1048c0 3.3-2.7 6-6 6H876c-3.3 0-6-2.7-6-6z" fill-opacity="0"/><path d="M895.5 90H915m9.75 0h19.5m9.75 0h19.5m9.75 0h19.5m9.75 0h19.5m9.75 0h19.5m9.75 0h19.5m9.75 0h19.5m9.75 0h19.5m9.75 0h19.5m9.75 0h19.5m9.75 0h19.5m9.75 0h19.5m9.75 0h19.5m9.75 0h19.5m9.75 0h9.75l3.03.82 2.15 2.15.82 3.03v9.98m0 9.98v19.96m0 9.98v19.97m0 9.98v19.96m0 10v19.95m0 9.98v19.97m0 9.98v19.96m0 9.98v19.96m0 9.98v19.96m0 9.98v19.97m0 9.98v19.96m0 10v19.95m0 9.98v19.97m0 9.98v19.96m0 9.98v19.96m0 9.98v19.96m0 9.98v19.97m0 9.98V615m0 10v19.95m0 9.98v19.97m0 9.98v19.96m0 9.98v19.96m0 9.98v19.96m0 9.98v19.97m0 9.98v19.96m0 10v19.95m0 9.98v19.97m0 9.98v19.96m0 9.98v19.96m0 9.98v19.96m0 9.98v19.97m0 9.98v19.96m0 10v19.95m0 9.98v19.97m0 9.98v19.96m0 9.98v9.98l-.82 3.03-2.15 2.15-3.03.82h-9.75m-9.75 0H1305m-9.75 0h-19.5m-9.75 0h-19.5m-9.75 0h-19.5m-9.75 0H1188m-9.75 0h-19.5m-9.75 0h-19.5m-9.75 0h-19.5m-9.75 0H1071m-9.75 0h-19.5m-9.75 0h-19.5m-9.75 0h-19.5m-9.75 0H954m-9.75 0h-19.5m-9.75 0h-19.5m-9.75 0H876l-3.03-.82-2.15-2.15-.82-3.03v-9.98m0-9.98v-19.96m0-9.98v-19.97m0-9.98v-19.96m0-10v-19.95m0-9.98V984.3m0-9.98v-19.96m0-9.98v-19.96m0-9.98v-19.96m0-9.98v-19.97m0-9.98V834.6m0-10v-19.95m0-9.98V774.7m0-9.98v-19.96m0-9.98v-19.96m0-9.98v-19.96m0-9.98v-19.97m0-9.98V625m0-10v-19.95m0-9.98V565.1m0-9.98v-19.96m0-9.98v-19.96m0-9.98v-19.96m0-9.98v-19.97m0-9.98V415.4m0-10v-19.95m0-9.98V355.5m0-9.98v-19.96m0-9.98v-19.96m0-9.98v-19.96m0-9.98v-19.97m0-9.98V205.8m0-10v-19.95m0-9.98V145.9m0-9.98v-19.96m0-9.98V96l.82-3.03 2.15-2.15L876 90h9.75" stroke="#282c33" fill="none"/><path d="M900 702c0-1.1.9-2 2-2h416c1.1 0 2 .9 2 2v396c0 1.1-.9 2-2 2H902c-1.1 0-2-.9-2-2z" fill="#ede7f6"/><use xlink:href="#b" transform="matrix(1,0,0,1,916,716) translate(0 16.69921875)"/><use xlink:href="#c" transform="matrix(1,0,0,1,916,716) translate(106.9453125 16.69921875)"/><path d="M350 96c0-3.3 2.7-6 6-6h468c3.3 0 6 2.7 6 6v1048c0 3.3-2.7 6-6 6H356c-3.3 0-6-2.7-6-6z" fill-opacity="0"/><path d="M375.5 90H395m9.75 0h19.5m9.75 0h19.5m9.75 0h19.5m9.75 0H512m9.75 0h19.5m9.75 0h19.5m9.75 0h19.5m9.75 0H629m9.75 0h19.5m9.75 0h19.5m9.75 0h19.5m9.75 0H746m9.75 0h19.5m9.75 0h19.5m9.75 0H824l3.03.82 2.15 2.15L830 96v9.98m0 9.98v19.96m0 9.98v19.97m0 9.98v19.96m0 10v19.95m0 9.98v19.97m0 9.98v19.96m0 9.98v19.96m0 9.98v19.96m0 9.98v19.97m0 9.98v19.96m0 10v19.95m0 9.98v19.97m0 9.98v19.96m0 9.98v19.96m0 9.98v19.96m0 9.98v19.97m0 9.98V615m0 10v19.95m0 9.98v19.97m0 9.98v19.96m0 9.98v19.96m0 9.98v19.96m0 9.98v19.97m0 9.98v19.96m0 10v19.95m0 9.98v19.97m0 9.98v19.96m0 9.98v19.96m0 9.98v19.96m0 9.98v19.97m0 9.98v19.96m0 10v19.95m0 9.98v19.97m0 9.98v19.96m0 9.98v9.98l-.82 3.03-2.15 2.15-3.03.82h-9.75m-9.75 0H785m-9.75 0h-19.5m-9.75 0h-19.5m-9.75 0h-19.5m-9.75 0H668m-9.75 0h-19.5m-9.75 0h-19.5m-9.75 0h-19.5m-9.75 0H551m-9.75 0h-19.5m-9.75 0h-19.5m-9.75 0h-19.5m-9.75 0H434m-9.75 0h-19.5m-9.75 0h-19.5m-9.75 0H356l-3.03-.82-2.15-2.15-.82-3.03v-9.98m0-9.98v-19.96m0-9.98v-19.97m0-9.98v-19.96m0-10v-19.95m0-9.98V984.3m0-9.98v-19.96m0-9.98v-19.96m0-9.98v-19.96m0-9.98v-19.97m0-9.98V834.6m0-10v-19.95m0-9.98V774.7m0-9.98v-19.96m0-9.98v-19.96m0-9.98v-19.96m0-9.98v-19.97m0-9.98V625m0-10v-19.95m0-9.98V565.1m0-9.98v-19.96m0-9.98v-19.96m0-9.98v-19.96m0-9.98v-19.97m0-9.98V415.4m0-10v-19.95m0-9.98V355.5m0-9.98v-19.96m0-9.98v-19.96m0-9.98v-19.96m0-9.98v-19.97m0-9.98V205.8m0-10v-19.95m0-9.98V145.9m0-9.98v-19.96m0-9.98V96l.82-3.03 2.15-2.15L356 90h9.75" stroke="#282c33" fill="none"/><path d="M380 142c0-1.1.9-2 2-2h416c1.1 0 2 .9 2 2v396c0 1.1-.9 2-2 2H382c-1.1 0-2-.9-2-2z" fill="#ede7f6"/><use xlink:href="#d" transform="matrix(1,0,0,1,396,156) translate(0 16.69921875)"/><use xlink:href="#e" transform="matrix(1,0,0,1,396,156) translate(106.9453125 16.69921875)"/><path d="M900 142c0-1.1.9-2 2-2h416c1.1 0 2 .9 2 2v396c0 1.1-.9 2-2 2H902c-1.1 0-2-.9-2-2z" fill="#ede7f6"/><use xlink:href="#f" transform="matrix(1,0,0,1,916,156) translate(0 16.69921875)"/><use xlink:href="#g" transform="matrix(1,0,0,1,916,156) translate(96.837890625 16.69921875)"/><path d="M380 702c0-1.1.9-2 2-2h416c1.1 0 2 .9 2 2v396c0 1.1-.9 2-2 2H382c-1.1 0-2-.9-2-2z" fill="#ede7f6"/><use xlink:href="#h" transform="matrix(1,0,0,1,396,716) translate(0 16.69921875)"/><use xlink:href="#i" transform="matrix(1,0,0,1,396,716) translate(106.9453125 16.69921875)"/><path d="M246.46 271.1l-26.36-45.3c-2.05-3.64-5.64-5.7-9.86-5.8h-52.48c-4.22.1-7.8 2.16-9.86 5.8l-26.36 45.18c-2.05 3.53-2.05 7.62 0 11.26l26.36 45.52c2.05 3.75 5.5 5.92 9.86 6.03h52.48c4.22-.12 7.8-2.3 9.86-6.04l26.36-45.18c2.05-3.75 2.05-7.85 0-11.5z" stroke="#000" stroke-opacity="0" fill="#4285f4"/><path d="M207.6 253.44l-20.88 9.96-10-9.88-16.34 16.22 10.9 10.77-10.9 19.76 33.85 33.5h16.02c4.3-.16 7.85-2.33 9.9-6.02l22.8-39.28z" stroke="#000" stroke-opacity="0" fill-opacity=".07"/><path d="M167 267.48h5v19.3h-5v-19.3zM196 265.14h4.98v21.58h-5v-21.58zM174.38 260.06h19.24V265h-19.24v-4.94zM174.38 288.75h19.24v4.95h-19.24v-4.95z" stroke="#000" stroke-opacity="0" fill="#fff"/><path d="M161 253.14h15c.66 0 1 .34 1 1v14.82c0 .66-.34 1-1 1h-15c-.65 0-1-.34-1-1v-14.83c0-.65.35-1 1-1zM192 253.14h14.97c.67 0 1 .34 1 1v14.82c0 .66-.33 1-1 1H192c-.67 0-1-.34-1-1v-14.83c0-.65.33-1 1-1zM161 283.8h15c.66 0 1 .34 1 1v14.83c0 .66-.34 1-1 1h-15c-.65 0-1-.34-1-1V284.8c0-.66.35-1 1-1zM192 283.8h14.97c.67 0 1 .34 1 1v14.83c0 .66-.33 1-1 1H192c-.67 0-1-.34-1-1V284.8c0-.66.33-1 1-1z" stroke="#000" stroke-opacity="0" fill="#fff"/><use xlink:href="#j" transform="matrix(1,0,0,1,120,338.78999999999996) translate(32.827160493827165 17.77777777777778)"/><use xlink:href="#k" transform="matrix(1,0,0,1,120,338.78999999999996) translate(29.493827160493822 44.44444444444444)"/><use xlink:href="#l" transform="matrix(1,0,0,1,120,338.78999999999996) translate(35.04938271604939 71.11111111111111)"/><path d="M360 86c0-3.3 2.7-6 6-6h228c3.3 0 6 2.7 6 6v48c0 3.3-2.7 6-6 6H366c-3.3 0-6-2.7-6-6z" stroke="#000" stroke-opacity="0" fill="#fff" fill-opacity="0"/><use xlink:href="#m" transform="matrix(1,0,0,1,365,85) translate(0 30.27777777777778)"/><use xlink:href="#n" transform="matrix(1,0,0,1,365,85) translate(75.18518518518519 30.27777777777778)"/><path d="M880 86c0-3.3 2.7-6 6-6h228c3.3 0 6 2.7 6 6v48c0 3.3-2.7 6-6 6H886c-3.3 0-6-2.7-6-6z" stroke="#000" stroke-opacity="0" fill="#fff" fill-opacity="0"/><use xlink:href="#o" transform="matrix(1,0,0,1,885,85) translate(0 30.27777777777778)"/><use xlink:href="#n" transform="matrix(1,0,0,1,885,85) translate(66.5432098765432 30.27777777777778)"/><g filter="url(#p)"><path d="M400 202c0-1.1.9-2 2-2h376c1.1 0 2 .9 2 2v296c0 1.1-.9 2-2 2H402c-1.1 0-2-.9-2-2z" fill="#fff"/><path d="M421.53 215.93h-5.06c-.3 0-.54.24-.54.54v5.06c0 .3.24.54.54.54h5.04c.3 0 .55-.24.55-.54v-5.06c0-.3-.24-.54-.54-.54" stroke="#000" stroke-opacity="0" fill="#777"/><path d="M429.52 215.55c.26 0 .48-.22.48-.5v-.78c0-.26-.22-.48-.48-.48h-2.47v-2.3c0-.3-.24-.55-.53-.55h-2.3v-2.47c0-.26-.2-.48-.47-.48h-.8c-.28 0-.5.22-.5.48v2.47h-2.6v-2.47c0-.26-.2-.48-.45-.48h-.8c-.26 0-.48.22-.48.48v2.47h-2.6v-2.47c0-.26-.2-.48-.46-.48h-.8c-.28 0-.5.22-.5.48v2.47h-2.28c-.3 0-.53.24-.53.53v2.3h-2.47c-.26 0-.48.2-.48.47v.8c0 .28.22.5.48.5h2.47v2.57h-2.47c-.26 0-.48.22-.48.48v.8c0 .26.22.48.48.48h2.47v2.6h-2.47c-.26 0-.48.22-.48.48v.8c0 .26.22.48.48.48h2.47v2.28c0 .3.24.53.53.53h2.28v2.47c0 .26.22.48.5.48h.8c.27 0 .46-.22.46-.48v-2.47h2.6v2.47c0 .26.22.48.48.48h.8c.26 0 .48-.22.48-.48v-2.47h2.6v2.47c0 .26.22.48.48.48h.8c.26 0 .45-.22.45-.48v-2.47h2.32c.3 0 .55-.24.55-.53v-2.28h2.47c.26-.03.46-.25.46-.5v-.78c0-.26-.22-.48-.48-.48h-2.47v-2.6h2.47c.26 0 .48-.22.48-.48v-.8c0-.26-.22-.48-.48-.48h-2.47v-2.57h2.47zm-4.27 9.7h-12.5v-12.5h12.5v12.5z" stroke="#000" stroke-opacity="0" fill="#777"/><use xlink:href="#q" transform="matrix(1,0,0,1,436,209) translate(0 14.84375)"/><use xlink:href="#r" transform="matrix(1,0,0,1,436,209) translate(69.0234375 14.84375)"/></g><path d="M652.46 334.2l-26.36-45.3c-2.05-3.63-5.64-5.68-9.86-5.8h-52.48c-4.22.12-7.8 2.17-9.86 5.8l-26.36 45.18c-2.05 3.53-2.05 7.63 0 11.27l26.36 45.5c2.05 3.77 5.5 5.93 9.86 6.05h52.48c4.22-.12 7.8-2.28 9.86-6.04l26.36-45.17c2.05-3.77 2.05-7.86 0-11.5z" stroke="#000" stroke-opacity="0" fill="#4285f4"/><path d="M644.87 358.58l-43.25-42.83-3.1 6.65-6.75-6.65-3.1 6.65-6.66-6.65-1.65 8.03-5.96.97-1.2 5.2-7.7 1.86 6.9 6.82-6.82 2.92 6.83 6.74-6.9 3 46.12 45.6h4.68c4.2-.18 7.78-2.3 9.84-6.02z" stroke="#000" stroke-opacity="0" fill-opacity=".07"/><path d="M595.82 333.16h-11.4c-.67 0-1.2.53-1.2 1.2v11.3c0 .64.53 1.2 1.2 1.2h11.4c.66-.04 1.17-.57 1.17-1.2v-11.3c0-.67-.55-1.2-1.22-1.2" stroke="#000" stroke-opacity="0" fill="#fff"/><path d="M613.88 332.23c.6 0 1.1-.44 1.1-1.08v-1.72c0-.6-.5-1.08-1.1-1.08h-5.56v-5.17c0-.7-.55-1.23-1.2-1.23h-5.2v-5.46c0-.6-.5-1.1-1.1-1.1H599c-.6 0-1.04.5-1.04 1.1v5.5h-5.86v-5.5c-.05-.6-.55-1.1-1.15-1.1h-1.73c-.6 0-1.1.5-1.1 1.1v5.5h-5.86v-5.5c0-.6-.5-1.1-1.1-1.1h-1.73c-.65 0-1.1.5-1.1 1.1v5.5h-5.22c-.64 0-1.2.5-1.2 1.18v5.12h-5.55c-.6 0-1.1.5-1.1 1.08v1.77c0 .6.5 1.08 1.1 1.08h5.56v5.75h-5.56c-.6 0-1.1.5-1.1 1.1v1.8c0 .6.5 1.1 1.1 1.1h5.56v5.8h-5.56c-.6 0-1.1.48-1.1 1.07v1.77c0 .6.5 1.03 1.1 1.03h5.56v5.17c0 .64.5 1.18 1.2 1.18h5.2v5.5c0 .6.46 1.1 1.1 1.1h1.74c.6 0 1.1-.5 1.1-1.1V358h5.86v5.5c0 .6.5 1.1 1.1 1.1h1.73c.6 0 1.1-.5 1.1-1.1V358h5.9v5.5c0 .6.5 1.1 1.1 1.1h1.8c.6 0 1.1-.5 1.1-1.1V358h5.2c.65-.05 1.15-.54 1.15-1.18v-5.17h5.56c.6 0 1.1-.5 1.1-1.08v-1.72c0-.64-.5-1.08-1.1-1.08h-5.56v-5.8h5.56c.6 0 1.1-.5 1.1-1.08v-1.8-.03c0-.6-.5-1.1-1.1-1.1h-5.56v-5.74h5.56zM604.24 354h-28.22v-27.97h28.22z" stroke="#000" stroke-opacity="0" fill="#fff"/><path d="M758.56 460h-17.12c-1.34 0-2.44 1.1-2.44 2.44v17.12c0 1.34 1.1 2.44 2.44 2.44h17.12c1.34 0 2.44-1.1 2.44-2.44v-17.12c0-1.34-1.1-2.44-2.44-2.44zM750 477.12h-2.44v-9.8h-2.44v9.8h-2.45v-12.24h4.9c1.33 0 2.43 1.1 2.43 2.45v9.8zm7.33 0h-2.45v-9.8h-2.44v-2.44h4.9v12.24z" stroke="#000" stroke-opacity="0" fill="#777"/><g filter="url(#p)"><path d="M920 202c0-1.1.9-2 2-2h376c1.1 0 2 .9 2 2v296c0 1.1-.9 2-2 2H922c-1.1 0-2-.9-2-2z" fill="#fff"/><path d="M941.53 215.93h-5.06c-.3 0-.54.24-.54.54v5.06c0 .3.24.54.54.54h5.04c.3 0 .55-.24.55-.54v-5.06c0-.3-.24-.54-.54-.54" stroke="#000" stroke-opacity="0" fill="#777"/><path d="M949.52 215.55c.26 0 .48-.22.48-.5v-.78c0-.26-.22-.48-.48-.48h-2.47v-2.3c0-.3-.24-.55-.53-.55h-2.3v-2.47c0-.26-.2-.48-.47-.48h-.8c-.28 0-.5.22-.5.48v2.47h-2.6v-2.47c0-.26-.2-.48-.45-.48h-.8c-.26 0-.48.22-.48.48v2.47h-2.6v-2.47c0-.26-.2-.48-.46-.48h-.8c-.28 0-.5.22-.5.48v2.47h-2.28c-.3 0-.53.24-.53.53v2.3h-2.47c-.26 0-.48.2-.48.47v.8c0 .28.22.5.48.5h2.47v2.57h-2.47c-.26 0-.48.22-.48.48v.8c0 .26.22.48.48.48h2.47v2.6h-2.47c-.26 0-.48.22-.48.48v.8c0 .26.22.48.48.48h2.47v2.28c0 .3.24.53.53.53h2.28v2.47c0 .26.22.48.5.48h.8c.27 0 .46-.22.46-.48v-2.47h2.6v2.47c0 .26.22.48.48.48h.8c.26 0 .48-.22.48-.48v-2.47h2.6v2.47c0 .26.22.48.48.48h.8c.26 0 .45-.22.45-.48v-2.47h2.32c.3 0 .55-.24.55-.53v-2.28h2.47c.26-.03.46-.25.46-.5v-.78c0-.26-.22-.48-.48-.48h-2.47v-2.6h2.47c.26 0 .48-.22.48-.48v-.8c0-.26-.22-.48-.48-.48h-2.47v-2.57h2.47zm-4.27 9.7h-12.5v-12.5h12.5v12.5z" stroke="#000" stroke-opacity="0" fill="#777"/><use xlink:href="#q" transform="matrix(1,0,0,1,956,209) translate(0 14.84375)"/><use xlink:href="#r" transform="matrix(1,0,0,1,956,209) translate(69.0234375 14.84375)"/></g><path d="M1172.46 334.2l-26.36-45.3c-2.05-3.63-5.64-5.68-9.86-5.8h-52.48c-4.22.12-7.8 2.17-9.86 5.8l-26.36 45.18c-2.05 3.53-2.05 7.63 0 11.27l26.36 45.5c2.05 3.77 5.5 5.93 9.86 6.05h52.48c4.22-.12 7.8-2.28 9.86-6.04l26.36-45.17c2.05-3.77 2.05-7.86 0-11.5z" stroke="#000" stroke-opacity="0" fill="#4285f4"/><path d="M1164.87 358.58l-43.25-42.83-3.1 6.65-6.75-6.65-3.1 6.65-6.66-6.65-1.65 8.03-5.96.97-1.2 5.2-7.7 1.86 6.9 6.82-6.82 2.92 6.83 6.74-6.9 3 46.12 45.6h4.68c4.2-.18 7.78-2.3 9.84-6.02z" stroke="#000" stroke-opacity="0" fill-opacity=".07"/><path d="M1115.82 333.16h-11.4c-.67 0-1.2.53-1.2 1.2v11.3c0 .64.53 1.2 1.2 1.2h11.4c.66-.04 1.17-.57 1.17-1.2v-11.3c0-.67-.55-1.2-1.22-1.2" stroke="#000" stroke-opacity="0" fill="#fff"/><path d="M1133.88 332.23c.6 0 1.1-.44 1.1-1.08v-1.72c0-.6-.5-1.08-1.1-1.08h-5.56v-5.17c0-.7-.55-1.23-1.2-1.23h-5.2v-5.46c0-.6-.5-1.1-1.1-1.1h-1.8c-.6 0-1.04.5-1.04 1.1v5.5h-5.86v-5.5c-.05-.6-.55-1.1-1.15-1.1h-1.73c-.6 0-1.1.5-1.1 1.1v5.5h-5.86v-5.5c0-.6-.5-1.1-1.1-1.1h-1.73c-.65 0-1.1.5-1.1 1.1v5.5h-5.22c-.64 0-1.2.5-1.2 1.18v5.12h-5.55c-.6 0-1.1.5-1.1 1.08v1.77c0 .6.5 1.08 1.1 1.08h5.56v5.75h-5.56c-.6 0-1.1.5-1.1 1.1v1.8c0 .6.5 1.1 1.1 1.1h5.56v5.8h-5.56c-.6 0-1.1.48-1.1 1.07v1.77c0 .6.5 1.03 1.1 1.03h5.56v5.17c0 .64.5 1.18 1.2 1.18h5.2v5.5c0 .6.46 1.1 1.1 1.1h1.74c.6 0 1.1-.5 1.1-1.1V358h5.86v5.5c0 .6.5 1.1 1.1 1.1h1.73c.6 0 1.1-.5 1.1-1.1V358h5.9v5.5c0 .6.5 1.1 1.1 1.1h1.8c.6 0 1.1-.5 1.1-1.1V358h5.2c.65-.05 1.15-.54 1.15-1.18v-5.17h5.56c.6 0 1.1-.5 1.1-1.08v-1.72c0-.64-.5-1.08-1.1-1.08h-5.56v-5.8h5.56c.6 0 1.1-.5 1.1-1.08v-1.8-.03c0-.6-.5-1.1-1.1-1.1h-5.56v-5.74h5.56zm-9.64 21.78h-28.22v-27.97h28.22z" stroke="#000" stroke-opacity="0" fill="#fff"/><path d="M1278.56 460h-17.12c-1.34 0-2.44 1.1-2.44 2.44v17.12c0 1.34 1.1 2.44 2.44 2.44h17.12c1.34 0 2.44-1.1 2.44-2.44v-17.12c0-1.34-1.1-2.44-2.44-2.44zm-8.56 17.12h-2.44v-9.8h-2.44v9.8h-2.45v-12.24h4.9c1.33 0 2.43 1.1 2.43 2.45v9.8zm7.33 0h-2.45v-9.8h-2.44v-2.44h4.9v12.24z" stroke="#000" stroke-opacity="0" fill="#777"/><path d="M266.46 614.2l-26.36-45.3c-2.05-3.63-5.64-5.68-9.86-5.8h-52.48c-4.22.12-7.8 2.17-9.86 5.8l-26.36 45.18c-2.05 3.53-2.05 7.63 0 11.27l26.36 45.5c2.05 3.77 5.5 5.93 9.86 6.04h52.48c4.22-.12 7.8-2.28 9.86-6.04l26.36-45.17c2.05-3.77 2.05-7.86 0-11.5z" stroke="#000" stroke-opacity="0" fill="#4285f4"/><path d="M219.64 598.7l-25.24 7.73-5.83 3.36 8.47 8.28-11.5.7.23 10.7-6.4 7.98 39.8 39.4h11.1c4.23-.15 7.82-2.26 9.9-6l19.1-32.93z" stroke="#000" stroke-opacity="0" fill-opacity=".07"/><path d="M202 609.1h4v21.52h-4V609.1zM184.94 619H188v12.86h-4v-11.94c0-.5.43-.92.94-.92zM219.98 619h3.07c.5 0 .93.4.93.92v11.94h-4V619z" stroke="#000" stroke-opacity="0" fill="#fff"/><path d="M185 617.02H223c.56 0 1 .44 1 1v2.95H184V618c0-.54.45-.98 1-.98zM188.97 598.22h30.05c.64 0 .96.32.96.96v9.95c0 .64-.32.96-.96.96h-30.05c-.64 0-.96-.33-.96-.97v-9.95c0-.64.33-.96.97-.96zM180 627.9h11.03c.65 0 .97.33.97.97v7.95c0 .64-.32.97-.97.97H180c-.66 0-1-.34-1-.98v-7.95c0-.64.34-.97 1-.97zM216.96 627.9H228c.65 0 .98.33.98.97v7.95c0 .64-.33.97-.98.97h-11.04c-.65 0-.97-.34-.97-.98v-7.95c0-.64.3-.97.96-.97zM198 627.9H210c.67 0 1 .34 1 1v7.9c0 .65-.33 1-1 1H198c-.66 0-1-.35-1-1v-7.9c0-.66.34-1 1-1z" stroke="#000" stroke-opacity="0" fill="#fff"/><use xlink:href="#s" transform="matrix(1,0,0,1,140,681.895) translate(7.271604938271608 17.77777777777778)"/><use xlink:href="#t" transform="matrix(1,0,0,1,140,681.895) translate(71.34567901234567 17.77777777777778)"/><use xlink:href="#u" transform="matrix(1,0,0,1,140,681.895) translate(15.29629629629629 44.44444444444444)"/><path d="M465.48 620.5H268.46v-1h197.02zm124.92-6.43l-.87 3.22-2.34 2.33-3.23.87h-47.52v-1h47.4l2.82-.77 1.97-1.96.76-2.84V413.28h1z" stroke="#282c33" stroke-width=".05" fill="#282c33"/><path d="M268.47 620.5h-.57l.1-.87-.02-.13h.5z" fill="#282c33"/><path d="M268.5 620.52h-.63l.1-.9-.02-.14h.54zm-.5-1l.02.1-.1.86h.52v-.96z" stroke="#282c33" stroke-width=".05" fill="#282c33"/><path d="M594.54 412.78h-9.27l4.63-14.27z" fill="#282c33"/><path d="M595.23 413.28h-10.65l5.32-16.38zm-9.27-1h7.9l-3.96-12.15z" stroke="#282c33" stroke-width=".05" fill="#282c33"/><use xlink:href="#v" transform="matrix(1,0,0,1,465.4836392005562,609.3333333333334) translate(0 14.222222222222223)"/><path d="M20 626c0-3.3 2.7-6 6-6h148c3.3 0 6 2.7 6 6v48c0 3.3-2.7 6-6 6H26c-3.3 0-6-2.7-6-6z" stroke="#000" stroke-opacity="0" fill="#fff" fill-opacity="0"/><g><use xlink:href="#w" transform="matrix(1,0,0,1,25,625) translate(30.648148148148145 30.27777777777778)"/></g><path d="M100.5 620h23.16" stroke="#3a414a" fill="none"/><path stroke="#3a414a" stroke-width=".05" fill="#3a414a"/><path d="M138.43 620l-14.27 4.64v-9.28z" stroke="#3a414a" fill="#3a414a"/><path d="M350 314.33c0-3.3 2.7-6 6-6h228c3.3 0 6 2.7 6 6v51.34c0 3.3-2.7 6-6 6H356c-3.3 0-6-2.7-6-6z" stroke="#000" stroke-opacity="0" fill="#fff" fill-opacity="0"/><g><use xlink:href="#x" transform="matrix(1,0,0,1,355,313.33333333333337) translate(84.25925925925927 20.97222222222222)"/><use xlink:href="#y" transform="matrix(1,0,0,1,355,313.33333333333337) translate(135.8641975308642 20.97222222222222)"/><use xlink:href="#z" transform="matrix(1,0,0,1,355,313.33333333333337) translate(84.87654320987654 42.30555555555556)"/></g><path d="M857.33 310.33c0-3.3 2.7-6 6-6h228c3.32 0 6 2.7 6 6v51.34c0 3.3-2.68 6-6 6h-228c-3.3 0-6-2.7-6-6z" stroke="#000" stroke-opacity="0" fill="#fff" fill-opacity="0"/><g><use xlink:href="#x" transform="matrix(1,0,0,1,862.3333333333331,309.3333333333333) translate(84.25925925925927 31.09722222222222)"/><use xlink:href="#A" transform="matrix(1,0,0,1,862.3333333333331,309.3333333333333) translate(135.8641975308642 31.09722222222222)"/></g><defs><radialGradient gradientUnits="userSpaceOnUse" id="a" fx="-160378.8" fy="300141.6" cx="161878.8" cy="-298901.6" r="14931.6"><stop offset="0%" stop-color="#fff" stop-opacity=".1"/><stop offset="100%" stop-color="#fff" stop-opacity="0"/></radialGradient><path d="M729 0H543v-1233l-373 137v-168l530-199h29V0" id="B"/><path d="M574-1476c351 0 454 237 460 615v240c0 217-37 378-111 483S733 20 576 20c-346 0-454-246-461-616v-247c0-214 37-373 111-477s190-156 348-156zm275 905c0-337 59-752-275-753-95 0-160 38-207 107-80 118-66 409-67 625 0 157 22 273 68 348s115 113 208 113c91 0 160-35 204-106s69-182 69-334" id="C"/><path d="M258 11c-71 0-114-43-114-108 0-67 42-112 114-112s116 45 116 112c-1 65-45 108-116 108" id="D"/><path d="M177 125H18l608-1581h158" id="E"/><path d="M569-1476c255 0 440 146 439 390 0 143-91 314-274 512L344-151h731V0H121v-133l504-560c75-85 125-155 155-207 105-184 6-424-211-424-183 0-293 113-291 297H93c-3-270 199-449 476-449" id="F"/><path d="M902-489h202v151H902V0H716v-338H53v-109l652-1009h197v967zm-639 0h453v-714l-22 40" id="G"/><g id="b"><use transform="matrix(0.0087890625,0,0,0.0087890625,0,0)" xlink:href="#B"/><use transform="matrix(0.0087890625,0,0,0.0087890625,10.107421875,0)" xlink:href="#C"/><use transform="matrix(0.0087890625,0,0,0.0087890625,20.21484375,0)" xlink:href="#D"/><use transform="matrix(0.0087890625,0,0,0.0087890625,24.9521484375,0)" xlink:href="#C"/><use transform="matrix(0.0087890625,0,0,0.0087890625,35.0595703125,0)" xlink:href="#D"/><use transform="matrix(0.0087890625,0,0,0.0087890625,39.796875,0)" xlink:href="#B"/><use transform="matrix(0.0087890625,0,0,0.0087890625,49.904296875,0)" xlink:href="#C"/><use transform="matrix(0.0087890625,0,0,0.0087890625,60.01171875,0)" xlink:href="#D"/><use transform="matrix(0.0087890625,0,0,0.0087890625,64.7490234375,0)" xlink:href="#C"/><use transform="matrix(0.0087890625,0,0,0.0087890625,74.8564453125,0)" xlink:href="#E"/><use transform="matrix(0.0087890625,0,0,0.0087890625,82.2744140625,0)" xlink:href="#F"/><use transform="matrix(0.0087890625,0,0,0.0087890625,92.3818359375,0)" xlink:href="#G"/></g><path d="M319-664C304-226 428 158 661 357l-38 113c-89-49-172-133-254-248C142-97 71-578 194-1025c67-244 240-513 429-618l38 122c-201 153-330 502-342 857" id="H"/><path d="M631-137c179 0 314-70 314-231 0-71-25-127-75-166s-141-77-272-115c-165-47-285-106-360-175s-112-154-112-255c0-245 231-397 495-397 206 0 369 89 449 218 43 68 65 142 65 223H942c0-184-129-283-321-283-172 0-299 76-301 236 0 59 26 109 76 150s135 78 256 113c205 59 345 116 436 256 35 53 50 119 50 193-2 256-231 398-507 390C333 12 90-129 80-422h193c0 187 160 285 358 285" id="I"/><path d="M491 20c-241-1-355-148-355-398v-704h185v699c0 164 67 246 200 246 141 0 235-53 282-158v-787h185V0H812l-4-107C736-22 630 20 491 20" id="J"/><path d="M634-1102c292 0 422 254 422 573 0 298-143 547-420 549-137 0-242-48-317-145L310 0H140v-1536h185v573c75-93 178-139 309-139zm-44 965c207 0 281-175 281-413 0-224-79-395-283-395-122 0-210 57-263 170v468c57 113 145 170 265 170" id="K"/><path d="M38 357C331 141 457-487 337-984c-53-219-157-429-299-546l39-113c190 106 362 378 431 621 75 268 76 597 0 868C440 88 266 365 77 470" id="L"/><g id="c"><use transform="matrix(0.0087890625,0,0,0.0087890625,0,0)" xlink:href="#H"/><use transform="matrix(0.0087890625,0,0,0.0087890625,6.15234375,0)" xlink:href="#I"/><use transform="matrix(0.0087890625,0,0,0.0087890625,16.8310546875,0)" xlink:href="#J"/><use transform="matrix(0.0087890625,0,0,0.0087890625,26.75390625,0)" xlink:href="#K"/><use transform="matrix(0.0087890625,0,0,0.0087890625,36.8525390625,0)" xlink:href="#F"/><use transform="matrix(0.0087890625,0,0,0.0087890625,46.9599609375,0)" xlink:href="#L"/></g><g id="d"><use transform="matrix(0.0087890625,0,0,0.0087890625,0,0)" xlink:href="#B"/><use transform="matrix(0.0087890625,0,0,0.0087890625,10.107421875,0)" xlink:href="#C"/><use transform="matrix(0.0087890625,0,0,0.0087890625,20.21484375,0)" xlink:href="#D"/><use transform="matrix(0.0087890625,0,0,0.0087890625,24.9521484375,0)" xlink:href="#C"/><use transform="matrix(0.0087890625,0,0,0.0087890625,35.0595703125,0)" xlink:href="#D"/><use transform="matrix(0.0087890625,0,0,0.0087890625,39.796875,0)" xlink:href="#F"/><use transform="matrix(0.0087890625,0,0,0.0087890625,49.904296875,0)" xlink:href="#C"/><use transform="matrix(0.0087890625,0,0,0.0087890625,60.01171875,0)" xlink:href="#D"/><use transform="matrix(0.0087890625,0,0,0.0087890625,64.7490234375,0)" xlink:href="#C"/><use transform="matrix(0.0087890625,0,0,0.0087890625,74.8564453125,0)" xlink:href="#E"/><use transform="matrix(0.0087890625,0,0,0.0087890625,82.2744140625,0)" xlink:href="#F"/><use transform="matrix(0.0087890625,0,0,0.0087890625,92.3818359375,0)" xlink:href="#G"/></g><path d="M832-402c-1-179-119-264-303-265H390v-151h139c164 0 281-91 281-250 0-171-85-256-255-256-154 0-265 99-263 250H107c-4-235 205-402 448-402 266 0 444 150 440 412-2 148-109 272-229 317 147 45 249 158 251 341 3 262-197 426-461 426C299 20 91-135 94-384h186c-2 156 116 253 276 253 176 0 277-96 276-271" id="M"/><g id="e"><use transform="matrix(0.0087890625,0,0,0.0087890625,0,0)" xlink:href="#H"/><use transform="matrix(0.0087890625,0,0,0.0087890625,6.15234375,0)" xlink:href="#I"/><use transform="matrix(0.0087890625,0,0,0.0087890625,16.8310546875,0)" xlink:href="#J"/><use transform="matrix(0.0087890625,0,0,0.0087890625,26.75390625,0)" xlink:href="#K"/><use transform="matrix(0.0087890625,0,0,0.0087890625,36.8525390625,0)" xlink:href="#M"/><use transform="matrix(0.0087890625,0,0,0.0087890625,46.9599609375,0)" xlink:href="#L"/></g><g id="f"><use transform="matrix(0.0087890625,0,0,0.0087890625,0,0)" xlink:href="#B"/><use transform="matrix(0.0087890625,0,0,0.0087890625,10.107421875,0)" xlink:href="#C"/><use transform="matrix(0.0087890625,0,0,0.0087890625,20.21484375,0)" xlink:href="#D"/><use transform="matrix(0.0087890625,0,0,0.0087890625,24.9521484375,0)" xlink:href="#C"/><use transform="matrix(0.0087890625,0,0,0.0087890625,35.0595703125,0)" xlink:href="#D"/><use transform="matrix(0.0087890625,0,0,0.0087890625,39.796875,0)" xlink:href="#C"/><use transform="matrix(0.0087890625,0,0,0.0087890625,49.904296875,0)" xlink:href="#D"/><use transform="matrix(0.0087890625,0,0,0.0087890625,54.6416015625,0)" xlink:href="#C"/><use transform="matrix(0.0087890625,0,0,0.0087890625,64.7490234375,0)" xlink:href="#E"/><use transform="matrix(0.0087890625,0,0,0.0087890625,72.1669921875,0)" xlink:href="#F"/><use transform="matrix(0.0087890625,0,0,0.0087890625,82.2744140625,0)" xlink:href="#G"/></g><g id="g"><use transform="matrix(0.0087890625,0,0,0.0087890625,0,0)" xlink:href="#H"/><use transform="matrix(0.0087890625,0,0,0.0087890625,6.15234375,0)" xlink:href="#I"/><use transform="matrix(0.0087890625,0,0,0.0087890625,16.8310546875,0)" xlink:href="#J"/><use transform="matrix(0.0087890625,0,0,0.0087890625,26.75390625,0)" xlink:href="#K"/><use transform="matrix(0.0087890625,0,0,0.0087890625,36.8525390625,0)" xlink:href="#B"/><use transform="matrix(0.0087890625,0,0,0.0087890625,46.9599609375,0)" xlink:href="#L"/></g><g id="h"><use transform="matrix(0.0087890625,0,0,0.0087890625,0,0)" xlink:href="#B"/><use transform="matrix(0.0087890625,0,0,0.0087890625,10.107421875,0)" xlink:href="#C"/><use transform="matrix(0.0087890625,0,0,0.0087890625,20.21484375,0)" xlink:href="#D"/><use transform="matrix(0.0087890625,0,0,0.0087890625,24.9521484375,0)" xlink:href="#C"/><use transform="matrix(0.0087890625,0,0,0.0087890625,35.0595703125,0)" xlink:href="#D"/><use transform="matrix(0.0087890625,0,0,0.0087890625,39.796875,0)" xlink:href="#M"/><use transform="matrix(0.0087890625,0,0,0.0087890625,49.904296875,0)" xlink:href="#C"/><use transform="matrix(0.0087890625,0,0,0.0087890625,60.01171875,0)" xlink:href="#D"/><use transform="matrix(0.0087890625,0,0,0.0087890625,64.7490234375,0)" xlink:href="#C"/><use transform="matrix(0.0087890625,0,0,0.0087890625,74.8564453125,0)" xlink:href="#E"/><use transform="matrix(0.0087890625,0,0,0.0087890625,82.2744140625,0)" xlink:href="#F"/><use transform="matrix(0.0087890625,0,0,0.0087890625,92.3818359375,0)" xlink:href="#G"/></g><g id="i"><use transform="matrix(0.0087890625,0,0,0.0087890625,0,0)" xlink:href="#H"/><use transform="matrix(0.0087890625,0,0,0.0087890625,6.15234375,0)" xlink:href="#I"/><use transform="matrix(0.0087890625,0,0,0.0087890625,16.8310546875,0)" xlink:href="#J"/><use transform="matrix(0.0087890625,0,0,0.0087890625,26.75390625,0)" xlink:href="#K"/><use transform="matrix(0.0087890625,0,0,0.0087890625,36.8525390625,0)" xlink:href="#G"/><use transform="matrix(0.0087890625,0,0,0.0087890625,46.9599609375,0)" xlink:href="#L"/></g><path fill="#3a414a" d="M137 0h-34L2-248h35l83 218 83-218h36" id="N"/><path fill="#3a414a" d="M24-231v-30h32v30H24zM24 0v-190h32V0H24" id="O"/><path fill="#3a414a" d="M114-163C36-179 61-72 57 0H25l-1-190h30c1 12-1 29 2 39 6-27 23-49 58-41v29" id="P"/><path fill="#3a414a" d="M59-47c-2 24 18 29 38 22v24C64 9 27 4 27-40v-127H5v-23h24l9-43h21v43h35v23H59v120" id="Q"/><path fill="#3a414a" d="M84 4C-5 8 30-112 23-190h32v120c0 31 7 50 39 49 72-2 45-101 50-169h31l1 190h-30c-1-10 1-25-2-33-11 22-28 36-60 37" id="R"/><path fill="#3a414a" d="M141-36C126-15 110 5 73 4 37 3 15-17 15-53c-1-64 63-63 125-63 3-35-9-54-41-54-24 1-41 7-42 31l-33-3c5-37 33-52 76-52 45 0 72 20 72 64v82c-1 20 7 32 28 27v20c-31 9-61-2-59-35zM48-53c0 20 12 33 32 33 41-3 63-29 60-74-43 2-92-5-92 41" id="S"/><path fill="#3a414a" d="M24 0v-261h32V0H24" id="T"/><g id="j"><use transform="matrix(0.06172839506172839,0,0,0.06172839506172839,0,0)" xlink:href="#N"/><use transform="matrix(0.06172839506172839,0,0,0.06172839506172839,14.382716049382715,0)" xlink:href="#O"/><use transform="matrix(0.06172839506172839,0,0,0.06172839506172839,19.25925925925926,0)" xlink:href="#P"/><use transform="matrix(0.06172839506172839,0,0,0.06172839506172839,26.604938271604937,0)" xlink:href="#Q"/><use transform="matrix(0.06172839506172839,0,0,0.06172839506172839,32.77777777777778,0)" xlink:href="#R"/><use transform="matrix(0.06172839506172839,0,0,0.06172839506172839,45.123456790123456,0)" xlink:href="#S"/><use transform="matrix(0.06172839506172839,0,0,0.06172839506172839,57.46913580246913,0)" xlink:href="#T"/></g><path fill="#3a414a" d="M30-248c87 1 191-15 191 75 0 78-77 80-158 76V0H30v-248zm33 125c57 0 124 11 124-50 0-59-68-47-124-48v98" id="U"/><path fill="#3a414a" d="M108 0H70L1-190h34L89-25l56-165h34" id="V"/><path fill="#3a414a" d="M100-194c63 0 86 42 84 106H49c0 40 14 67 53 68 26 1 43-12 49-29l28 8c-11 28-37 45-77 45C44 4 14-33 15-96c1-61 26-98 85-98zm52 81c6-60-76-77-97-28-3 7-6 17-6 28h103" id="W"/><g id="k"><use transform="matrix(0.06172839506172839,0,0,0.06172839506172839,0,0)" xlink:href="#U"/><use transform="matrix(0.06172839506172839,0,0,0.06172839506172839,14.814814814814813,0)" xlink:href="#P"/><use transform="matrix(0.06172839506172839,0,0,0.06172839506172839,22.160493827160494,0)" xlink:href="#O"/><use transform="matrix(0.06172839506172839,0,0,0.06172839506172839,27.037037037037038,0)" xlink:href="#V"/><use transform="matrix(0.06172839506172839,0,0,0.06172839506172839,38.14814814814815,0)" xlink:href="#S"/><use transform="matrix(0.06172839506172839,0,0,0.06172839506172839,50.49382716049383,0)" xlink:href="#Q"/><use transform="matrix(0.06172839506172839,0,0,0.06172839506172839,56.66666666666667,0)" xlink:href="#W"/></g><path fill="#3a414a" d="M212-179c-10-28-35-45-73-45-59 0-87 40-87 99 0 60 29 101 89 101 43 0 62-24 78-52l27 14C228-24 195 4 139 4 59 4 22-46 18-125c-6-104 99-153 187-111 19 9 31 26 39 46" id="X"/><path fill="#3a414a" d="M100-194c62-1 85 37 85 99 1 63-27 99-86 99S16-35 15-95c0-66 28-99 85-99zM99-20c44 1 53-31 53-75 0-43-8-75-51-75s-53 32-53 75 10 74 51 75" id="Y"/><path fill="#3a414a" d="M85-194c31 0 48 13 60 33l-1-100h32l1 261h-30c-2-10 0-23-3-31C134-8 116 4 85 4 32 4 16-35 15-94c0-66 23-100 70-100zm9 24c-40 0-46 34-46 75 0 40 6 74 45 74 42 0 51-32 51-76 0-42-9-74-50-73" id="Z"/><g id="l"><use transform="matrix(0.06172839506172839,0,0,0.06172839506172839,0,0)" xlink:href="#X"/><use transform="matrix(0.06172839506172839,0,0,0.06172839506172839,15.987654320987653,0)" xlink:href="#T"/><use transform="matrix(0.06172839506172839,0,0,0.06172839506172839,20.864197530864196,0)" xlink:href="#Y"/><use transform="matrix(0.06172839506172839,0,0,0.06172839506172839,33.20987654320987,0)" xlink:href="#R"/><use transform="matrix(0.06172839506172839,0,0,0.06172839506172839,45.55555555555555,0)" xlink:href="#Z"/></g><g id="m"><use transform="matrix(0.06172839506172839,0,0,0.06172839506172839,0,0)" xlink:href="#U"/><use transform="matrix(0.06172839506172839,0,0,0.06172839506172839,14.814814814814813,0)" xlink:href="#P"/><use transform="matrix(0.06172839506172839,0,0,0.06172839506172839,22.160493827160494,0)" xlink:href="#O"/><use transform="matrix(0.06172839506172839,0,0,0.06172839506172839,27.037037037037038,0)" xlink:href="#V"/><use transform="matrix(0.06172839506172839,0,0,0.06172839506172839,38.14814814814815,0)" xlink:href="#S"/><use transform="matrix(0.06172839506172839,0,0,0.06172839506172839,50.49382716049383,0)" xlink:href="#Q"/><use transform="matrix(0.06172839506172839,0,0,0.06172839506172839,56.66666666666667,0)" xlink:href="#W"/></g><path fill="#3a414a" d="M185-189c-5-48-123-54-124 2 14 75 158 14 163 119 3 78-121 87-175 55-17-10-28-26-33-46l33-7c5 56 141 63 141-1 0-78-155-14-162-118-5-82 145-84 179-34 5 7 8 16 11 25" id="aa"/><path fill="#3a414a" d="M115-194c53 0 69 39 70 98 0 66-23 100-70 100C84 3 66-7 56-30L54 0H23l1-261h32v101c10-23 28-34 59-34zm-8 174c40 0 45-34 45-75 0-40-5-75-45-74-42 0-51 32-51 76 0 43 10 73 51 73" id="ab"/><path fill="#3a414a" d="M117-194c89-4 53 116 60 194h-32v-121c0-31-8-49-39-48C34-167 62-67 57 0H25l-1-190h30c1 10-1 24 2 32 11-22 29-35 61-36" id="ac"/><path fill="#3a414a" d="M135-143c-3-34-86-38-87 0 15 53 115 12 119 90S17 21 10-45l28-5c4 36 97 45 98 0-10-56-113-15-118-90-4-57 82-63 122-42 12 7 21 19 24 35" id="ad"/><g id="n"><use transform="matrix(0.06172839506172839,0,0,0.06172839506172839,0,0)" xlink:href="#aa"/><use transform="matrix(0.06172839506172839,0,0,0.06172839506172839,14.814814814814813,0)" xlink:href="#R"/><use transform="matrix(0.06172839506172839,0,0,0.06172839506172839,27.160493827160494,0)" xlink:href="#ab"/><use transform="matrix(0.06172839506172839,0,0,0.06172839506172839,39.50617283950617,0)" xlink:href="#ac"/><use transform="matrix(0.06172839506172839,0,0,0.06172839506172839,51.85185185185185,0)" xlink:href="#W"/><use transform="matrix(0.06172839506172839,0,0,0.06172839506172839,64.19753086419753,0)" xlink:href="#Q"/><use transform="matrix(0.06172839506172839,0,0,0.06172839506172839,70.37037037037037,0)" xlink:href="#ad"/></g><path fill="#3a414a" d="M96-169c-40 0-48 33-48 73s9 75 48 75c24 0 41-14 43-38l32 2c-6 37-31 61-74 61-59 0-76-41-82-99-10-93 101-131 147-64 4 7 5 14 7 22l-32 3c-4-21-16-35-41-35" id="ae"/><g id="o"><use transform="matrix(0.06172839506172839,0,0,0.06172839506172839,0,0)" xlink:href="#U"/><use transform="matrix(0.06172839506172839,0,0,0.06172839506172839,14.814814814814813,0)" xlink:href="#R"/><use transform="matrix(0.06172839506172839,0,0,0.06172839506172839,27.160493827160494,0)" xlink:href="#ab"/><use transform="matrix(0.06172839506172839,0,0,0.06172839506172839,39.50617283950617,0)" xlink:href="#T"/><use transform="matrix(0.06172839506172839,0,0,0.06172839506172839,44.382716049382715,0)" xlink:href="#O"/><use transform="matrix(0.06172839506172839,0,0,0.06172839506172839,49.25925925925926,0)" xlink:href="#ae"/></g><path d="M688-137c238 0 323-102 359-325h193c-32 297-228 482-552 482-361 0-569-299-569-680 0-197 8-360 73-497 88-186 257-317 513-319 316-2 509 195 535 488h-193c-31-212-118-330-342-330-272 0-397 224-393 523v141c-3 282 115 517 376 517" id="af"/><path d="M584 20C278 26 81-227 91-551c10-320 175-545 491-551 308-5 503 247 494 573-9 322-175 543-492 549zm-2-970c-208 0-305 185-305 421 0 216 106 398 307 398 211 0 307-186 307-420 0-214-109-399-309-399" id="ag"/><path d="M1240-945c-141 0-250 95-250 227V0H804v-709c0-157-77-236-231-236-121 0-204 52-249 155V0H139v-1082h175l5 120c79-93 186-140 321-140 151 0 254 58 309 174 69-98 181-174 345-174 237 0 362 126 362 377V0h-185v-714c-2-159-67-231-231-231" id="ah"/><path d="M632-1102c291 0 422 251 422 573 0 297-141 548-419 549-131 0-235-42-310-125v521H140v-1498h169l9 120c75-93 180-140 314-140zm-53 971c207 0 290-180 290-419 0-218-92-395-292-395-112 0-196 50-252 149v517c55 99 140 148 254 148" id="ai"/><path d="M456 20C285 20 205-92 206-268v-671H9v-143h197v-262h185v262h202v143H391v671c-9 125 92 149 207 118V0c-49 13-96 20-142 20" id="aj"/><path d="M599-131c141 0 220-65 285-146l113 88C906-50 770 20 589 20 281 21 93-214 93-545c0-223 93-397 233-485 74-48 154-72 240-72 300 2 449 218 445 537v77H278c0 197 129 357 321 357zm227-509c-3-180-88-310-260-310-170 0-264 140-282 310h542" id="ak"/><g id="q"><use transform="matrix(0.0078125,0,0,0.0078125,0,0)" xlink:href="#af"/><use transform="matrix(0.0078125,0,0,0.0078125,10.4140625,0)" xlink:href="#ag"/><use transform="matrix(0.0078125,0,0,0.0078125,19.5390625,0)" xlink:href="#ah"/><use transform="matrix(0.0078125,0,0,0.0078125,33.5625,0)" xlink:href="#ai"/><use transform="matrix(0.0078125,0,0,0.0078125,42.5390625,0)" xlink:href="#J"/><use transform="matrix(0.0078125,0,0,0.0078125,51.359375,0)" xlink:href="#aj"/><use transform="matrix(0.0078125,0,0,0.0078125,56.5859375,0)" xlink:href="#ak"/></g><path d="M992-673H361v516h733V0H169v-1456h915v158H361v468h631v157" id="al"/><path d="M589-945c-131 0-219 81-264 174V0H140v-1082h175l6 136c83-104 191-156 324-156 229 0 346 129 346 387V0H806v-716c-2-153-65-229-217-229" id="am"/><path d="M521 20C240 20 96-239 96-550c0-303 147-552 427-552 132 0 235 47 309 140l9-120h169V-26c4 277-183 454-459 452-165-1-334-81-400-187l96-111c79 98 176 147 291 147 180 1 288-109 286-290v-93C750-23 649 20 521 20zm48-965c-209 0-287 178-287 416 0 217 86 392 285 392 117 0 202-53 257-159v-494c-57-103-142-155-255-155" id="an"/><path d="M341 0H156v-1082h185V0zm-91-1264c-68 0-108-42-109-105 0-62 41-107 109-107s110 44 110 107-42 105-110 105" id="ao"/><g id="r"><use transform="matrix(0.0078125,0,0,0.0078125,0,0)" xlink:href="#al"/><use transform="matrix(0.0078125,0,0,0.0078125,9.09375,0)" xlink:href="#am"/><use transform="matrix(0.0078125,0,0,0.0078125,17.921875,0)" xlink:href="#an"/><use transform="matrix(0.0078125,0,0,0.0078125,26.8984375,0)" xlink:href="#ao"/><use transform="matrix(0.0078125,0,0,0.0078125,30.78125,0)" xlink:href="#am"/><use transform="matrix(0.0078125,0,0,0.0078125,39.609375,0)" xlink:href="#ak"/></g><filter id="p" filterUnits="objectBoundingBox" x="-.01" y="-.01" width="1.02" height="1.02"><feOffset result="offOut" in="SourceAlpha" dy="1"/><feGaussianBlur result="blurOut" in="offOut" stdDeviation="1.5"/><feColorMatrix result="colorOut" in="blurOut" values="0 0 0 0 0 0 0 0 0 0 0 0 0 0 0 0 0 0 0.4 0"/><feBlend in="SourceGraphic" in2="colorOut"/></filter><g id="s"><use transform="matrix(0.06172839506172839,0,0,0.06172839506172839,0,0)" xlink:href="#X"/><use transform="matrix(0.06172839506172839,0,0,0.06172839506172839,15.987654320987653,0)" xlink:href="#T"/><use transform="matrix(0.06172839506172839,0,0,0.06172839506172839,20.864197530864196,0)" xlink:href="#Y"/><use transform="matrix(0.06172839506172839,0,0,0.06172839506172839,33.20987654320987,0)" xlink:href="#R"/><use transform="matrix(0.06172839506172839,0,0,0.06172839506172839,45.55555555555555,0)" xlink:href="#Z"/></g><path fill="#3a414a" d="M30 0v-248h33v221h125V0H30" id="ap"/><g id="t"><use transform="matrix(0.06172839506172839,0,0,0.06172839506172839,0,0)" xlink:href="#ap"/><use transform="matrix(0.06172839506172839,0,0,0.06172839506172839,12.345679012345679,0)" xlink:href="#Y"/><use transform="matrix(0.06172839506172839,0,0,0.06172839506172839,24.691358024691358,0)" xlink:href="#S"/><use transform="matrix(0.06172839506172839,0,0,0.06172839506172839,37.03703703703704,0)" xlink:href="#Z"/></g><path fill="#3a414a" d="M160-131c35 5 61 23 61 61C221 17 115-2 30 0v-248c76 3 177-17 177 60 0 33-19 50-47 57zm-97-11c50-1 110 9 110-42 0-47-63-36-110-37v79zm0 115c55-2 124 14 124-45 0-56-70-42-124-44v89" id="aq"/><path fill="#3a414a" d="M177-190C167-65 218 103 67 71c-23-6-38-20-44-43l32-5c15 47 100 32 89-28v-30C133-14 115 1 83 1 29 1 15-40 15-95c0-56 16-97 71-98 29-1 48 16 59 35 1-10 0-23 2-32h30zM94-22c36 0 50-32 50-73 0-42-14-75-50-75-39 0-46 34-46 75s6 73 46 73" id="ar"/><g id="u"><use transform="matrix(0.06172839506172839,0,0,0.06172839506172839,0,0)" xlink:href="#aq"/><use transform="matrix(0.06172839506172839,0,0,0.06172839506172839,14.814814814814813,0)" xlink:href="#S"/><use transform="matrix(0.06172839506172839,0,0,0.06172839506172839,27.160493827160494,0)" xlink:href="#T"/><use transform="matrix(0.06172839506172839,0,0,0.06172839506172839,32.03703703703704,0)" xlink:href="#S"/><use transform="matrix(0.06172839506172839,0,0,0.06172839506172839,44.382716049382715,0)" xlink:href="#ac"/><use transform="matrix(0.06172839506172839,0,0,0.06172839506172839,56.72839506172839,0)" xlink:href="#ae"/><use transform="matrix(0.06172839506172839,0,0,0.06172839506172839,67.8395061728395,0)" xlink:href="#O"/><use transform="matrix(0.06172839506172839,0,0,0.06172839506172839,72.71604938271605,0)" xlink:href="#ac"/><use transform="matrix(0.06172839506172839,0,0,0.06172839506172839,85.06172839506173,0)" xlink:href="#ar"/></g><path fill="#333" d="M186 0v-106H76V0H24v-248h52v99h110v-99h50V0h-50" id="as"/><path fill="#333" d="M136-208V0H84v-208H4v-40h212v40h-80" id="at"/><path fill="#333" d="M24-248c93 1 206-16 204 79-1 75-69 88-152 82V0H24v-248zm52 121c47 0 100 7 100-41 0-47-54-39-100-39v80" id="au"/><path fill="#333" d="M4 7l51-268h42L46 7H4" id="av"/><path fill="#333" d="M138-131c27 9 52 24 51 61 0 53-36 74-89 74S11-19 11-69c0-35 22-54 51-61-78-25-46-121 38-121 51 0 83 19 83 66 0 30-18 49-45 54zm-38-16c24 0 32-13 32-36 1-23-11-34-32-34-22 0-33 12-32 34 0 22 9 36 32 36zm1 116c27 0 37-17 37-43 0-25-13-39-39-39-24 0-37 15-37 40 0 27 11 42 39 42" id="aw"/><path fill="#333" d="M101-251c68 0 84 54 84 127C185-50 166 4 99 4S15-52 14-124c-1-75 17-127 87-127zm-1 216c37-5 36-46 36-89s4-89-36-89c-39 0-36 45-36 89 0 43-3 85 36 89" id="ax"/><g id="v"><use transform="matrix(0.04938271604938272,0,0,0.04938271604938272,0,0)" xlink:href="#as"/><use transform="matrix(0.04938271604938272,0,0,0.04938271604938272,12.790123456790125,0)" xlink:href="#at"/><use transform="matrix(0.04938271604938272,0,0,0.04938271604938272,23.60493827160494,0)" xlink:href="#at"/><use transform="matrix(0.04938271604938272,0,0,0.04938271604938272,34.41975308641975,0)" xlink:href="#au"/><use transform="matrix(0.04938271604938272,0,0,0.04938271604938272,46.27160493827161,0)" xlink:href="#av"/><use transform="matrix(0.04938271604938272,0,0,0.04938271604938272,51.20987654320988,0)" xlink:href="#aw"/><use transform="matrix(0.04938271604938272,0,0,0.04938271604938272,61.086419753086425,0)" xlink:href="#ax"/></g><path fill="#3a414a" d="M197 0v-115H63V0H30v-248h33v105h134v-105h34V0h-34" id="ay"/><path fill="#3a414a" d="M127-220V0H93v-220H8v-28h204v28h-85" id="az"/><path fill="#3a414a" d="M0 4l72-265h28L28 4H0" id="aA"/><path fill="#3a414a" d="M134-131c28 9 52 24 51 62-1 50-34 73-85 73S17-19 16-69c0-36 21-54 49-61-75-25-45-126 34-121 46 3 78 18 79 63 0 33-17 51-44 57zm-34-11c31 1 46-15 46-44 0-28-17-43-47-42-29 0-46 13-45 42 1 28 16 44 46 44zm1 122c35 0 51-18 51-52 0-30-18-46-53-46-33 0-51 17-51 47 0 34 19 51 53 51" id="aB"/><path fill="#3a414a" d="M101-251c68 0 85 55 85 127S166 4 100 4C33 4 14-52 14-124c0-73 17-127 87-127zm-1 229c47 0 54-49 54-102s-4-102-53-102c-51 0-55 48-55 102 0 53 5 102 54 102" id="aC"/><g id="w"><use transform="matrix(0.06172839506172839,0,0,0.06172839506172839,0,0)" xlink:href="#ay"/><use transform="matrix(0.06172839506172839,0,0,0.06172839506172839,15.987654320987653,0)" xlink:href="#az"/><use transform="matrix(0.06172839506172839,0,0,0.06172839506172839,29.50617283950617,0)" xlink:href="#az"/><use transform="matrix(0.06172839506172839,0,0,0.06172839506172839,43.02469135802469,0)" xlink:href="#U"/><use transform="matrix(0.06172839506172839,0,0,0.06172839506172839,57.839506172839506,0)" xlink:href="#aA"/><use transform="matrix(0.06172839506172839,0,0,0.06172839506172839,64.01234567901234,0)" xlink:href="#aB"/><use transform="matrix(0.06172839506172839,0,0,0.06172839506172839,76.35802469135803,0)" xlink:href="#aC"/></g><path fill="#3a414a" d="M233-177c-1 41-23 64-60 70L243 0h-38l-65-103H63V0H30v-248c88 3 205-21 203 71zM63-129c60-2 137 13 137-47 0-61-80-42-137-45v92" id="aD"/><path fill="#3a414a" d="M30 0v-248h187v28H63v79h144v27H63v87h162V0H30" id="aE"/><g id="x"><use transform="matrix(0.049382716049382706,0,0,0.049382716049382706,0,0)" xlink:href="#aD"/><use transform="matrix(0.049382716049382706,0,0,0.049382716049382706,12.790123456790122,0)" xlink:href="#ay"/><use transform="matrix(0.049382716049382706,0,0,0.049382716049382706,25.580246913580243,0)" xlink:href="#aE"/><use transform="matrix(0.049382716049382706,0,0,0.049382716049382706,37.432098765432094,0)" xlink:href="#ap"/></g><use transform="matrix(0.049382716049382706,0,0,0.049382716049382706,0,0)" xlink:href="#aB" id="y"/><path fill="#3a414a" d="M205 0l-28-72H64L36 0H1l101-248h38L239 0h-34zm-38-99l-47-123c-12 45-31 82-46 123h93" id="aF"/><path fill="#3a414a" d="M115-194c55 1 70 41 70 98S169 2 115 4C84 4 66-9 55-30l1 105H24l-1-265h31l2 30c10-21 28-34 59-34zm-8 174c40 0 45-34 45-75s-6-73-45-74c-42 0-51 32-51 76 0 43 10 73 51 73" id="aG"/><path fill="#3a414a" d="M106-169C34-169 62-67 57 0H25v-261h32l-1 103c12-21 28-36 61-36 89 0 53 116 60 194h-32v-121c2-32-8-49-39-48" id="aH"/><g id="z"><use transform="matrix(0.049382716049382706,0,0,0.049382716049382706,0,0)" xlink:href="#aF"/><use transform="matrix(0.049382716049382706,0,0,0.049382716049382706,11.85185185185185,0)" xlink:href="#aG"/><use transform="matrix(0.049382716049382706,0,0,0.049382716049382706,21.728395061728392,0)" xlink:href="#S"/><use transform="matrix(0.049382716049382706,0,0,0.049382716049382706,31.604938271604933,0)" xlink:href="#ae"/><use transform="matrix(0.049382716049382706,0,0,0.049382716049382706,40.49382716049382,0)" xlink:href="#aH"/><use transform="matrix(0.049382716049382706,0,0,0.049382716049382706,50.37037037037037,0)" xlink:href="#W"/></g><use transform="matrix(0.049382716049382706,0,0,0.049382716049382706,0,0)" xlink:href="#aB" id="A"/></defs></g></svg>